# xmcd
#
# Track frame offsets: 
#        150
#        19171
#        34998
#        51609
#        70768
#        87599
#        105648
#        120443
#        136819
#        152335
#        165816
#        179107
#        192678
#
# Disc length: 2685 seconds
#
# Revision: 0
# Processed by: cddbd v1.5.2PL0 Copyright (c) Steve Scherf et al.
# Submitted via: ExactAudioCopy v0.99pb4
#
DISCID=b10a7b0d
DTITLE=Billy Bob Buddha - SOFA SO GOOD
DYEAR=2007
DGENRE=Blues
TTITLE0=Tore Down
TTITLE1=Funny You Should Mention It
TTITLE2=Before You Accuse Me
TTITLE3=Never Come This Way
TTITLE4=Rat Race
TTITLE5=Divin' Duck
TTITLE6=She Caught The Katy
TTITLE7=Rescue
TTITLE8=Sweet Home Chicago
TTITLE9=Day For The King
TTITLE10=The Rodeo Left Town
TTITLE11=That Night In Romania
TTITLE12=Work Song
EXTD=
EXTT0=
EXTT1=
EXTT2=
EXTT3=
EXTT4=
EXTT5=
EXTT6=
EXTT7=
EXTT8=
EXTT9=
EXTT10=
EXTT11=
EXTT12=
PLAYORDER=
